<?xml version="1.0" encoding="UTF-8"?>
<svg id="Federalist_Party" data-name="Federalist Party" xmlns="http://www.w3.org/2000/svg" viewBox="0 0 1080 1080">
  <defs>
    <style>
      .cls-1 {
        fill: #616d7d;
      }
    </style>
  </defs>
  <g>
    <path class="cls-1" d="M379.976,178.481c-26.596,11.256-52.291,26.29-75.683,43.44-37.445,27.452-66.197,59.549-93.284,97.41-3.235,4.522-10.595,18.65-13.406,21.066-3.114,2.676-7.585,2.612-9.984-.773,46.325-75.574,113.993-132.886,193.538-168.632l-1.181,7.488Z"/>
    <path class="cls-1" d="M881.62,326.146c-2.371-.374-5.026,1.584-7.052,1.486-4.068-.196-17.756-23.351-21.603-28.261-41.343-52.764-96.414-95.612-157.287-121.956l-2.202-8.016c75.894,32.917,141.717,86.812,188.143,156.747Z"/>
    <path class="cls-1" d="M674.958,163.091l-1.69,4.628c-1.849,1.556-39.574-13.811-46.133-12.581l.015-4.732,47.808,12.685Z"/>
    <path class="cls-1" d="M448.233,155.128c-14.748,2.471-29.313,9.718-43.551,13.189-2.274.554-4.443,1.904-5.784-1.318-1.191-2.865,2.556-2.807,4.22-3.49,6.361-2.611,34.556-11.915,39.719-11.654,2.307.117,4.841.532,5.396,3.273Z"/>
    <path class="cls-1" d="M164.45,554.164l-30.834,20.598c-4.971-57.53,3.71-117.43,23.517-171.399,3.387-9.228,6.937-20.952,13.475-28.111-1.065,4.005,2.551,8.819,2.472,11.88-.101,3.915-8.762,24.877-10.578,31.244-9.594,33.625-16.898,68.024-18.16,103.281-.805,22.487,4.679,19.807,20.108,32.508Z"/>
    <path class="cls-1" d="M901.642,359.429c24.718,49.111,42.004,102.846,46.283,158.335l-21.552-22.967c.954-1.672,4.205-1.701,4.636-3.477,2.887-11.883-10.65-60.599-15.045-74.528-3.893-12.337-16.248-35.606-17.863-45.022-.661-3.853.985-7.657.483-11.554l3.059-.786Z"/>
    <path class="cls-1" d="M102.676,599.434c11.359-3.597,23.202-7.419,33.826-12.984,20.432-10.703,37.592-28.889,57.379-40.848,26.375-15.94,55.56-23.267,86.237-23.103l-29.323-13.415c-27.59-15.465-46.57-41.854-55.899-72.454-8.659-28.404-8.521-59.542-21.188-86.698,47.856,12.73,97.752-8.403,143.409,17.407l23.377-64.703c12.699-1.308,25.065,2.86,37.587,4.506,4.49.59,9.339-.538,13.837.044,16.368,2.118,32.046,7.41,43.207,20.533,9.406-14.886,17.619-25.961,34.155-32.996,12.524-5.328,22.18-4.591,34.827-6.997,10.072-1.915,18.623-8.025,29.353-5.47,5.877,1.399,13.661,16.866,18.154,22.483,7.666,9.584,26.173,27.539,26.173,41.217v26.127l18.519-4.769c-14.257-38.571,15.96-63.171,29.314-94.986,2.598-1.929,14.043,13.873,16.925,16.642,11.101,10.665,23.248,18.351,31.834,32.221l37.588-15.614v41.962c0,3.305-5.062,17.754-6.88,21.439-3.68,7.46-9.915,13.161-14.469,19.971l14.402,25.88c17.234-31.669,44.779-56.368,79.426-65.717,35.444-9.564,76.402.991,111.04-15.032-10.635,27.172-7.571,57.982-18.214,85.001-7.282,18.485-18.707,30.881-33.479,43.218-3.786,3.162-9.143,5.492-12.107,7.843-1.813,1.438-.794,3.001-.968,4.86,28.419-3.945,52.234.965,75.447,18.353,19.131,14.33,32.129,37.118,54.102,46.596l-26.678,14.54c-23.783,18.577-48.789,32.824-79.729,32.96,10.5,17.762,14.798,47.348,29.292,62.091,7.376,7.503,24.583,12.763,32.382,21.814,10.253-33.475,18.544-68.197,18.429-103.538l15.505-7.301c-1.86,91.583-36.566,184.693-102.555,247.014-6.245-21.092-9.094-43.698-20.514-62.846-2.362-3.961-21.055-27.602-24.975-24.222,12.767,14.565,21.814,31.76,27.005,50.64,3.525,12.818,4.497,27.809,8.384,40.48,3.87,12.617,11.699,23.665,17.04,35.535-46.095-12.875-95.715-1.864-138.83-26.087l-32.356-22.977c23.365,30.442,53.038,44.686,90.241,49.055,6.83.802,14.405-1.409,20.796,2.385-37.341,29.896-80.97,52.071-126.45,65.716-3.72-28.632,9.631-56.673,7.677-84.684-1.121-16.076-6.795-37.577-16.926-49.905,9.038,23.521,10.987,48.286,7.305,73.229-3.344,22.654-10.914,43.413-7.328,67.692-.678.793-14.024-8.096-16.407-9.266-28.711-14.098-60.07-16.295-87.403-35.358-8.435-5.882-14.887-13.675-22.635-20.29,18.584,44.412,70.596,46.99,107.938,65.706-.978,2.381-22.08,5.94-25.926,6.635-81.242,14.675-164.266,6.241-240.396-26.13-16.561-7.042-32.024-16.45-48.288-24.063-.458-2.274,1.742-1.662,3.33-2.065,33.007-8.386,53.185-12.193,78.424-38.269,1.632-1.687,3.63-2.74,3.045-5.567-19.715,14.429-39.441,26.727-63.489,32.183-35.985,8.166-73.258.411-109.218,8.986-1.623-2.154,17.667-40.488,15.15-49.523-.436-1.564-19.531-18.789-22.917-22.482-41.041-44.768-71.604-99.234-86.327-159.166l35.979,24.008c29.921,17.009,58.585,23.451,92.608,20.116,1.72-.169,8.491-.723,8.669-2.953-24.966-.335-52.008-5.601-75.073-15.564-36.758-15.878-64.059-47.765-100.735-63.616l-1.635-5.431ZM628.67,316.662v-16.608s-3.05-11.883-3.05-11.883l-15.271,33.92c6.88,3.697,5.535,11.972,12.949,15.146l.777-6.323c13.152,4.108,10.344,15.283,12.315,26.911-15.07-1.367-20.894-20.853-26.23-33.241-8.044,9.6-6.048,28.562,3.882,36.408l-4.642-17.403c5.249,10.423,21.693,12.705,27.833,18.928,3.593,3.642,1.961,8.774,5.318,11.143-.513-10.553-1.072-23.647-3.218-33.883-.315-1.505-4.032-15.622-6.005-13.613l-3.07,4.737-10.805-22.971c4.682-2.98,4.207,8.357,9.218,8.731ZM651.82,318.246v26.919c3.871-2.026,3.192-9.459,5.449-12.725,1.152-1.667,5.04-.711,6.874-1.54-1.665-18.716-20.686-28.04-31.609-41.149l3.879,28.494,7.68-12.659c-.231,6.509.462,13.147-.111,19.655-.298,3.392-6.169,13.616.947,10.478l6.891-17.473ZM460.575,420.38c.959,6.98-.695,15.738,0,22.96l6.226-37.294-1.384-10.653,2.871-3.529c7.73-3.121,12.346,2.222,10.618,10.127-2.09,1.257-6.278.79-7.675,2.78-.791,1.126-4.486,18.663-4.486,20.359v29.294c2.206.417,2.064-3.029,2.348-4.698,1.238-7.273.238-13.739,3.841-20.626l3.049,7.898c-1.913-15.735,11.736-27.899,15.458-42.734,2.903-.321,1.278,3.211.786,4.765-3.009,9.508-8.531,19.372-11.674,29.193-1.602,5.005-2.145,10.367-3.428,15.482-1.912,7.621-6.693,13.525-4.195,23.38l3.851-14.232c8.181-23.888,28.716-32.383,46.265-47.508,1.143-.252,1.053,1.657.75,2.346-1.485,3.377-25.996,20.799-31.622,27.714-3.079,3.784-5.632,8.179-7.832,12.543-.681,1.351-3.961,3.342-1.411,4.886,16.233-26.815,49.468-28.09,68.676-51.418,17.938-21.784,20.626-49.732,5.859-74.18-7.244-11.993-20.404-19.007-24.424-32.739-1.867-1.406-7.81,5.409-9.268,7.085-7.857,9.033-12.39,20.257-12.318,32.491l-1.589-15.1c.195-6.351,3.51-14.393,7.789-18.922,2.905-3.075,7.325-3.868,9.231-7.126-20.07,8.23-43.644,3.11-62.201,16.08-38.276,26.753-28.316,86.163-7.958,121.659l-.763-18.993c2.362.587,4.358,6.866,4.612,8.709ZM446.679,435.415c-7.694-23.918-20.537-47.462-18.467-73.598.952-12.02,7.373-18.075-2.494-29.161-18.983-21.327-53.216-12.446-77.716-20.743l11.078,16.321,4.314,15.34-16.934-28.494c-3.009,27.043-23.819,45.591-19.372,74.503.723,4.7,4.862,17.14,7.855,20.438,1.583,1.745,22.849,10.383,23.84,9.552-10.153-10.875-17.166-23.49-18.481-38.806-.157-1.829-1.286-8.678,1.5-8.674.834,10.477,3.582,20.849,8.473,30.105,9.622,18.21,42.868,44.335,62.149,50.202,6.533,1.988,13.463,3.937,20.383,3.593l-26.204-14.218c9.346-.66,17.492,5.859,26.009,8.905,2.586.925,5.033,1.407,1.721-1.769l-44.828-24.051.357-9.796,10.361-.015c.249,15.954,19.357,22.477,32.081,28.027,1.413.616,3.931,3.441,5.132,1.065-16.547-17.598-35.976-35.505-48.066-56.744-1.4-2.46-4.95-7.744-3.601-10.554,16.052,25.342,37.643,45.64,58.622,66.491.423-3.549-3.369-8.942-5.138-12.143-1.507-2.728-10.424-18.634-11.376-19.186-3.94-2.285-14.117,2.588-11.993-7.345,1.763-8.245,13.749-7.218,15.127-1.373.553,2.349-1.878,5.351-.156,7.879l15.827,24.251ZM704.249,351.508c.012-5.535,4.517-35.396-.807-36.427-11.389,4.133-40.24,16.72-40.96,30.868-.235,4.611,1.657,19.184,6.289,21.382-4.161-3.19,2.398-31.636,4.626-28.501.303,1.242-1.607,20.398,3.083,15.829l4.663-25.318,2.287,11.065,18.523-22.153c-.258,7.184-6.602,15.811-10.022,22.963l6.938-3.961c1.527,3.278-6.241,12.363-9.45,14.05-3.957,2.081-8.443.978-11.473,4.056-6.614,6.719-10.421,23.391-12.243,32.543l8.805-12.727,16.652-7.833,1.512,4.727c5.705-4.884,11.387-12.408,9.282-20.564-7.951,7.125-13.945,17.492-24.652,20.583-6.038-1.119,3.8-15.422,6.907-16.745,1.696-.722,3.06,2.328,5.123,2.216,5.494-.298,9.462-9.804,14.919-6.052ZM876.651,374.894l5.749-26.554c-13.088,11.086-24.885,23.739-34.709,37.98,5.256,1.217,26.772-8.301,28.96-11.426ZM836.124,410.088c-7.309,1.018-16.364-.74-23.906,0-.559-2.656.824-3.205,2.342-4.721,7.248-7.238,16.576-14.048,23.869-21.414-6.508-1.069-11.897,10.533-18.484,7.942,5.084-11.361,12.602-29.395,23.095-36.464,1.077-.725,2.634-1.76,3.098.016-2.37,3.968-6.21,8.517-7.405,12.99-.587,2.197-1.105,4.488,1.98,3.618l33.184-20.577c.399-2.098-.6-1.665-2.324-1.618-7.067.194-15.922,2.516-23.127,3.206-6.533.626-14.802-1.241-20.888.723-6.221,2.009-18.447,23.315-16.868,30.962l12.316-11.075c-3.425,6.215-2.819,15.248-5.021,20.956-2.68,6.949-14.796,11.329-18.107,18.606,4.299,1.559,8.439-2.154,11.506-2.404,12.84-1.046,20.359,4.775,37.54-.271,17.18-5.046,25.914-12.848,26.511-32.145-6.749,9.821-32.173,16.284-37.803,23.72-.896,1.183-.938,1.734-.732,3.191,2.084,1.952,12.278-4.174,13.862-.011-4.518.385-10.637,4.213-14.64,4.77ZM821.472,354.682c-6.659-.289-22.58,1.365-27.69,5.599-6.885,5.706-14.974,26.213-13.936,35.548l7.056-12.517,8.345-8.05c-1.233,6.683-4.415,13.601-5.809,20.158-.339,1.594-1.562,5.556,1.169,5.155,4.641-17.793,18.418-33.319,30.865-45.893ZM785.999,362.599c-17.249,3.945-33.325,17.6-35.457,36.396l11.574-15.812c4.281-1.783,1.131,5.776.936,7.308-.146,1.144-1.289,6.877,1.364,4.57l21.583-32.463ZM256.991,397.405c-1.637-6.616-9.849-29.682-15.411-32.456-6.226-3.105-15.792,1.024-22.368.939-7.709-.101-17.009-3.36-25.447-1.705l31.639,23.714c6.965,2.239-5.022-14.086-3.122-15.805,9.775,9.187,16.819,21.006,22.391,33.233,2.868.341,1.274-3.331,1.081-5.064-.519-4.654-1.913-9.306-2.637-13.916,2.682-.724,3.08,1.145,4.624,2.358,3.71,2.914,4.916,8.499,9.25,8.701ZM286.28,399.003c.956-7.788-7.251-27.525-12.994-31.772-5.887-4.354-21.431-2.648-28.632-3.049,13.493,14.049,25.56,29.694,30.865,49.06,2.874.369,1.139-3.181.84-4.817-1.44-7.892-4.762-15.598-5.471-23.673l15.392,14.251ZM229.215,408.504c-18.044-5.536-22.12-29.708-36.984-41.17,5.593,18.84,3.095,37.164,26.108,42.053,5.027,1.068,9.808-.648,12.501.058,6.697,1.754,22.262,20.376,32.314,19.637.916-4.296-1.251-2.699-3.059-3.912-14.446-9.697-27.74-21.092-40.909-32.487l-2.286.772,12.316,15.05ZM310.957,395.836c-3.675-15.969-14.694-26.092-30.831-26.902l20.828,31.646-3.848-17.409,13.851,12.666ZM630.216,386.355c-20.373-10.289-38.906-8.647-56.318,6.277-8.864,7.597-14.805,18.539-23.999,26.032-19.547,15.929-47.016,20.014-63.066,41.343-1.655,2.2-10.364,14.462-3.147,13.415,10.168-24.095,40.089-28.377,61.714-36.4-11.183,9.344-26.719,11.085-39.588,18.719-5.804,3.443-10.575,8.1-15.927,12.15l22.501-7c2.826.794,9.551-.155,8.339,4.602-7.414,1.322-14.922,1.751-21.671,5.478-6.731,3.716-12.902,13.895-19.902,15.986-6.924,2.068-16.852.533-24.77,3.071-6.125,1.963-11.283,7.724-16.627,9.848-9.79,3.893-19.368,1.406-21.899,16.295,4.929-1.257,8.012-5.009,13.47-5.948,15.653-2.693,27.486-1.196,43.56-7.532,28.065-11.062,32.047-34.139,66.982-29.127,5.786.83,10.222,5.312,16.322,4.615-.579-19.833,3.824-40.166,15.467-56.178l37.445-37.692c4.849-1.98,11.189,2.153,16.093,3.244,1.558.346,5.41,1.608,5.021-1.198ZM662.616,554.976v-29.294c3.124-.419,2.538-.28,3.504,1.988,2.029,4.764-1.01,17.062-1.52,23.022-.15,1.749-1.835,5.382,1.084,5.066,1.58-8.562,5.865-16.308,7.336-24.938.492-2.887,1.945-14.947,1.826-17.142-.213-3.904-6.383-4.891-4.25-12.205,2.093-5.911,10.173-5.715,11.815.008,1.691,5.895-2.764,8.311-3.725,12.987-.809,3.938-.313,7.826-1.073,11.567-1.393,6.853-3.552,13.431-5.053,20.159-.359,1.611-2.06,5.157.833,4.811,9.122-21.705,25.454-44.749,27.767-68.883,3.124-32.582-8.491-68.265-42.17-77.022l-47.221-10.112c-21.5,25.347-44.264,36.091-41.757,74.548,1.784,27.364,12.864,27.288,29.392,42.663,3.806,3.54,9.107,8.721,12.283,12.725,12.761,16.089,16.821,38.456,33.949,51.428,3.091-14.69-5.48-17.274-12.276-26.175-11.71-15.334-22.864-30.882-26.29-50.6,1.616-2.537,1.813,1.186,2.36,2.303,9.023,18.428,16.095,38.278,31.58,52.304l-13.178-30.033c-12.239-6.976-6.042-20.302,7.024-15.903-1.577-3.95-3.185-8.257-4.072-12.434-.569-2.681-1.623-5.151,1.765-1.808l8.502,27.694-5.4-5.504c-11.773,4.816,7.397,26.021,8.479,33.226,2.622.44,1.672-3.823,1.404-5.396-.782-4.576-3.625-8.678-2.95-13.594,2.625-3.591,6.798,21.781,7.259,23.41.516,1.824,1.27,6.694,3.505,6.668-.171-26.737-4.454-53.475-11.536-79.182-1.307-4.746-4.013-9.014-5.064-13.815-.344-1.571-1.539-5.574,1.173-5.159,5.699,17.354,12.733,34.11,16.266,52.189,3.326,17.021,3.861,33.494,5.361,50.718,4.104-1.455,2.979-7.733,3.069-10.285ZM228.191,425.401c-1.098-1.342-.731-4.021-2.713-5.89-4.772-4.498-18.916-8.876-23.992-15.756,1.084,34.782,30.598,40.274,58.599,34.826-.096-2.686,1.031-3.372-1.953-2.809-13.387,2.525-22.917.63-35.058-5.118l10.784.004c-.509-2.977-4.213-3.479-5.667-5.256ZM416.62,468.676c7.983.924,17.296-.673,25.448,0l-38.11-7.585c-30.528-14.787-51.911-43.054-89.106-39.89-15.401,1.31-26.851,10.866-40.896,15.821l.026,2.326c13.015,13.158,5.857,32.757,15.419,48.318l4.504-10.095,3.159-.965c11.851,27.468,27.003,49.24,59.405,49.212,15.415-.013,21.445-10.235,31.172-12.473,5.333-1.227,13.03,1.085,17.423-1.114,2.384-1.194,5.945-9.139,8.389-11.973,1.923-2.231,5.222-2.154,5.474-4.647-5.052-.039-9.657,2.867-14.633,3.183-3.247.206-2.979-1.198-.798-2.423,10.292-5.78,32.497-7.508,45.979-13.041,2.341-.961,4.179.926,3.376-3.568-28.54,6.357-59.128,5.722-87.557-1.141l-14.211-6.762c23.211,7.255,45.986,9.044,70.231,7.968l30.003-4.801-38.96-3.553-30.427-12.282c11.057,1.508,23.867,8.232,34.693,9.485ZM853.849,425.892l-.745-3.123-30.082,12.637c5.993.458,27.591-5.601,30.827-9.515ZM802.961,424.329c-1.002-1.06-21.261,4.728-25.448,4.748-15.166.073-23.084-5.766-41.182-1.103-7.314,1.885-22.042,10.003-25.168,17.005-.942,2.111,1.347,27.543.782,33.966-3.04,34.568-26.68,57.705-35.433,89.491,13.163-13.683,19.042-33.544,34.694-45.913,2.053,4.815-4.815,8.59-6.731,12.091-4.895,8.947-6.264,20.192-15.632,26.704-.244,1.18,1.571,1.062,2.28.766,5.059-2.114,29.005-23.929,34.749-29.254,7.791-7.221,14.608-15.677,22.349-22.975l.752,2.347c-19.141,23.099-39.535,44.368-63.221,62.552,6.586-2.362,26.627-8.982,30.875-13.413,3.138-3.273-.488-8.336,3.987-11.81,4.447-3.452,7.909,1.228,10.672.974,1.917-.177,8.083-9.213,12.312-10.561,2.635,4.62-7.63,8.952-9.588,11.513-1.906,2.492-1.586,7.189-4.161,9.212-2.54,1.994-6.659,1.154-9.734,2.669-10.54,5.196-21.054,11.142-31.82,16.424-2.673,1.311-8.201,2.278-7.161,6.085,27.038-.187,48.441-20.651,74.03-27.695,19.672-5.415,41.355-1.105,55.485-17.457,9.992-11.563,14.997-30.606,13.88-45.87-1.922-26.285-19.994-44.688-21.565-70.494ZM255.442,463.942c-5.536-.41-11.883-1.692-16.96-3.972-6.85-3.077-10.341-9.404-16.962-11.863,6.166,8.614,14.793,15.979,25.444,17.406,1.59.213,8.554,1.213,8.478-1.57ZM469.821,476.586c3.075-3.148-15.977-26.084-23.126-22.145,3.136,2.564,19.22,26.143,23.126,22.145ZM880.068,492.449c-12.703-4.833-28.315-2.947-38.545,6.298l16.964-3.136-7.704,5.534,3.712.654,25.572-9.351ZM637.939,581.088c-18.31-19.006-26.338-44.907-46.25-62.551-25.726-22.795-62.694-33.544-91.748-10.236-14.332,11.498-25.41,33.84-45.534,34.814,1.383,4.625,5.791,1.064,9.772,1.669,11.563,1.755,22.309,5.805,30.319,14.95-11.868-.037-22.808-10.373-35.458-8.708-.714.641,7.446,14.751,8.442,17.444,10.338,27.949,11.802,55.086,42.923,69.942,14.229,6.792,43.704,8.722,57.755,1.686,3.736-1.871,16.294-18.542,23.31-23.571,7.895-5.659,16.568-9.808,26.411-10.104.382-2.726-3.643-1.673-5.353-1.543-5.465.418-11.58,2.73-17.027,3.117-6.737.478-20.978,1.971-25.422-3.127,23.538,5.412,45.576-9.374,69.394-6.365.118-2.338-5.494-2.772-7.111-2.967-7.781-.937-16.326-.706-24.29-1.981-20.721-3.319-41.202-9.119-61.117-15.641-.358-2.952,3.096-1.168,4.692-.863,28.519,5.454,56.711,15.078,86.285,13.534l-18.188-9.013-23.443-5.241c5.047-6.216,17.067,3.426,23.884,3.205l-24.959-20.295-31.308-16.128c20.441,4.164,41.051,15.579,56.293,30.063,2.509-1.582-.513-3.5-1.538-4.755-3.208-3.928-7.612-7.131-10.82-11.059-1.025-1.255-4.047-3.174-1.538-4.756,11.702,8.208,17.906,22.914,31.624,28.479ZM904.755,506.663c-12.895-15.048-29.375-12.811-41.64,1.585l16.957-1.552c-3.121,4.533-14.192,7.027-13.109,14.228,9.638-10.447,24.737-11.515,37.792-14.261ZM935.602,535.167c-16.875-15.261-26.734-35.77-50.888-16.603l7.716,2.379-1.553,4.725,23.133-3.137-3.079,6.3,24.672,6.336ZM451.318,533.579c-.295-2.386-2.178-2.543-3.998-2.997-10.238-2.555-24.711-4.228-35.324-5.042-3.167-.243-6.421,1.992-9.196,1.704-2.876-.299-4.223-3.595-9.145-3.162-6.667.586-22.455,12.493-29.816,15.5-8.947,3.655-16.612,3.392-25.915,5.078-2.472.448-6.062-1.618-5.345,2.375,5.538,4.434,13.089-.265,20.717.922,5.689.885,11.681,5.467,18.587,6.238,16.025,1.789,32.702-3.18,49.174-1.399,12.243,1.324,21.108,7.205,31.806,12.458-4.107-11.22-20.642-26.099-1.545-31.674ZM938.686,538.365c-34.2-1.807-66.948-16.707-101.784-9.501-.362,2.758,3.504,1.495,5.374,1.568,20.463.793,41.195,2.059,61.325,5.144l5.781,7.508c-2.179,1.706-10.493-4.532-9.222.779,1.373,3.848,7.896,8.332,11.685,8.764,4.623.527,22.688-10.315,26.841-14.261ZM909.382,554.201c-11.907-1.612-22.386-13.276-33.921-13.485l9.231,11.884-12.308-6.333c-3.218,3.331,15.496,15.288,19.411,15.794,5.699.736,13.963-3.082,17.587-7.86ZM881.616,562.126c-11.023-3.094-19.109-12.019-27.741-19.026-2.211,2.758,8.746,12.954,10.773,15.05l-4.608,2.348c5.719,1.17,11.906,4.495,17.75,4.767,3.187.148,4.438.943,3.825-3.139ZM277.042,565.253c-4.696-6.25-21.417-18.074-28.684-18.962-8.345-1.02-23.305,3.471-31.453,6.33-.23,2.271,3.649,2.577,5.359,3.167,7.881,2.718,15.972,3.953,23.905,7.134,7.116,2.854,14.792,9.393,21.612,9.48l-12.331-11.868,21.592,4.719ZM292.464,560.503c-7.891-9.471-20.253-15.283-32.38-14.22.04,2.248,4.385,3.115,6.22,3.881,8.623,3.6,17.686,6.303,26.16,10.339ZM250.822,577.921c-4.186-4.049-10.07-9.4-14.925-12.371-3.687-2.256-20.033-10.602-23.222-11.106-5.505-.87-22.417,11.666-28.163,14.791,22.251,3.477,43.861,11.484,62.48,24.519l2.281-.766-27.745-21.37,29.294,6.303ZM462.117,636.525v-24.544c0-1.52-2.79-10.047-3.9-11.831-2.684-4.317-8.187-5.746-11.374-8.908-5.549-5.506-8.598-13.53-15.669-18.749-9.3-6.865-22.528-9.829-33.848-9.585,7.437,27.71,25.868,41.673,44.732,60.167,2.465,2.416,5.218,10.604,9.253,7.918l-13.856-27.72c10.876,7.344,15.108,20.971,18.512,33.241,2.691.397,1.569-3.653,1.362-5.353-.841-6.929-3.849-14.004-6.293-20.471-.436-1.153-3.27-5.081.294-3.476l5.838,9.849,4.95,19.462ZM759.009,595.355c-12.256-.742-24.735.544-37.015,0l-33.152,5.534c5.885,4.58,15.146,1.762,22.339,2.4,4.346.385,10.8,1.219,15.035,2.027,2.573.491,6.9.202,5.792,4.285-12.601-3.154-26.526-1.992-39.154-3.33-3.675-.389-7.363-2.266-11.129-2.838-1.611-.245-5.619-1.334-5.219,1.405l92.521,33.254-95.603-26.923c15.216,7.812,23.995,24.372,36.984,35.669,4.908,4.269,11.321,6.647,15.442,11.841-21.939-6.904-34.382-28.971-50.915-41.926-1.216-.953-2.949-4.276-4.597-1.614,6.553,20.236,22.276,31.009,33.883,45.97,14.323,18.462,13.648,30.963,38.622,41.104,59.051,23.977,75.037-18.585,113.629-44.789,3.159-2.145,8.423-2.517,8.327-5.845l-31.253-61.492c-23.515-31.116-57.255-31.324-90.704-17.664-13.226,5.402-23.647,14.022-37.787,18.21-9.266,2.744-18.847,4.496-28.551,4.739,1.075,2.922,9.026,1.716,11.547,1.553,26.91-1.739,52.094-11.773,79.432-1.551-.707,4.362-7.234.057-8.473-.018ZM138.235,600.105h43.184c-1.048-2.103-3.543-5.083-5.382-6.349-2.878-1.981-7.462-1.828-8.491-4.719,14.139-1.223,26.937,9.757,40.084,8.701l-10.781-8.701,18.493-.801c-10.003-8.233-22.183-13.062-34.482-16.253l-42.626,28.121ZM442.067,634.926c-26.099-17.436-40.502-46.961-70.522-58.215-19.58-7.34-42.902-7.744-61.623,2.522-17.236,9.451-23.89,30.146-39.041,42.257l38.542-.783-19.471,4.529c-5.049.722-10.196-.169-15.247.204-1.668.123-5.153-.868-3.82,2.355.751,1.817,5.715,6.401,7.425,9.803,8.438,16.791,9.828,34.774,29.505,44.131,26.734,12.713,48.469-3.415,71.524-13.808,7-3.155,16.926-4.814,22.743-8.322,2.808-1.693,5.128-5.724,5.519-5.777,1.91-.257,4.771,1.837,7.408,1.675,2.67-.164,5.002-2.749,7.865-3.056,5.316-.57,10.782.227,16.101-.097l-26.776-5.838-8.693,2.699,1.558,6.305-30.85,4.75,16.316-6.237c.345-7.256-3.917-8.126-10.154-8.014,2.974-5.107,13.499-3.214,19.337-3.228,10.523-.025,20.879,2.675,30.748,3.298,1.673.106,5.842,1.025,5.426-1.618-24.719-14.064-47.218-17.265-74.604-20.794-1.866-.24-8.422-.692-8.66-2.962,23.461.238,50.727,4.234,72.454,13.47,8.11,3.447,14.808,9.404,23.16,11.834l-38.541-26.266c-8.325,1.429-22.064,2-13.924-9.351l-26.184-11.856c9.57-.215,17.743,5.206,26.208,8.696,12.188,5.024,7.199,3.217,16.426,10.055,8.706,6.452,20.024,13.049,29.846,17.637ZM678.038,577.952l-16.169,12.645-4.643-18.987c-3.274,6.089-11.199,24.974-1.493,26.879,12.797,2.511,13.441-13.663,22.306-20.537ZM179.87,609.615l-41.627-4.743,24.043,12.618c2.584,1.506,21.253-4.362,17.584-7.875ZM264.696,606.455c-23.383-.335-46.832.366-70.229.052-4.084-.055-7.41-1.65-12.032-1.538-1.18.029-7.428.839-7.177,3.038l33.916,3.2c1.165,1.652-3.234,6.322-4.596,7.136-4.19,2.503-1.299-2.537-6.862-2.552-10.106-.027-22.339,6.561-33.254,5.685,4.043,2.997,12.918,9.928,17.665,10.097,8.036.285,30.574-10.965,32.708-20.449l28.837,1.867,1.929,3.059c-1.71,11.158-16.354,19.486-25.906,22.56-1.538.495-7.459,2.838-7.417-.48l13.869-9.505c-13.68-2.103-25.303,3.795-38.55,4.743-3.524,3.103,14.678,10.335,16.548,10.701,15.706,3.075,35.774-8.839,43.882-22.29,1.776-2.947,2.374-7.785,4.356-9.78,3.125-3.144,10.077-2.039,12.315-5.542ZM636.397,750.536c.831-12.749,10.3-27.057,4.655-40.41l3.04-.762c1.679,7.904,2.235,16.041,1.16,24.136-.552,4.154-3.5,17.894-8.856,17.037-.177,2.715-1.445,8.492,2.309,7.936,3.622-.536,8.475-4.172,13.336-5.332,23.89-5.7,55.699-7.718,58.259-41.615,2.256-29.877-17.201-46.999-36.125-65.491l9.605,24.975,1.977,16.973c-.01,1.862-2.108-.12-2.346-.759-1.535-4.106-1.186-11.906-2.736-17.777-2.203-8.342-7.411-14.805-10.48-22.644l-9.122-35.613v27.711l-4.627,2.375v-30.086l-13.441,29.745-5.066,32.01v-29.294c0-7.595,10.365-26.473,13.88-34.029l-16.987,13.421c-9.598,9.397-19.484,19.93-21.587,34.058-3.236.038-.951-6.033-.47-7.618,5.862-19.331,21.236-29.618,34.417-43.028-22.07,7.723-45.27,10.635-61.641,29.33-21.012,23.995-22.751,61.595,2.296,83.047,16.148,13.83,36.695,12.751,48.549,31.704ZM471.342,628.62l-3.06.789-.143,13.986,15.569,4.201-12.366-18.975ZM445.152,661.845c4.621,1.122,18.897-2.289,19.817-7.322-.597-7.05-5.844-8.069-11.864-6.646l-7.953,13.968ZM557.725,707.781l-11.058-29.01c-14.576-23.434-49.845-21.202-73.745-27.987-.803,4.724,1.219,2.501,3.61,3.328,11.52,3.985,23.732,6.786,33.389,14.882-11.369.413-19.758-7.884-32.012-9.89-1.646-.269-6.778-1.857-6.526,1.154,23.691,2.506,25.898,28.751,43.271,38.714,14.488,8.308,27.796,6.119,43.071,8.81ZM426.637,663.461c-7.019.161-15.374,2.598-22.036,5.062-17.603,6.511-34.589,17.913-52.049,24.151-16.298,5.823-28.62,2.831-37.806,21.356-10.604,21.384,1.676,37.369,2.455,56.379.205,5.001-4.123,17.625-.107,20.631,20.426-7.179,39.785,11.052,59.35,10.222,10.968-.465,26.751-9.155,34.024-17.457,10.76-12.284,9.344-22.12,13.927-36.373,4.411-13.717,20.122-37.562,19.362-49.975-.374-6.111-5.264-5.823,1.411-14.204-1.963-.955-5.011,3.435-6.143,4.777-9.544,11.322-16.842,24.83-27.039,35.578l-.746-2.341,33.898-48.322c-10.341,7.513-19.215,16.625-29.43,24.398-19.135,14.561-40.901,25.769-56.16,45.267-1.144.251-1.052-1.654-.751-2.346.797-1.83,21.458-22.54,24.642-25.379,7.405-6.604,40.739-29.149,43.193-34.835.3-.695.393-2.597-.751-2.346-4.113,3.619-10.366,9.02-16.194,7.125l20.035-15.035c-5.505-.492-35.166,10.281-36.735,12.931-.878,1.482.154,5.096-1.026,7.636-3.164,6.809-18.656,2.675-10.065-7.164l44.742-19.736ZM892.418,687.181l-6.197.779c-1.839,1.596-1.809,1.662.025,3.196,4.815,4.027,16.147,3.956,20.832,10.124l6.678-11.481c-13.028-11.43-28.841-29.45-47.546-20.001-.395,2.704,3.677,1.693,5.362,1.553,3.369-.279,6.562-2.025,10.042-1.564l-9.246,7.893,26.209.034-18.489,4.75c2.082,4.019,10.828-1.255,12.329,4.717ZM480.641,758.445c-4.268-29.142-2.085-62.779-20.837-87.051-6.997,12.098-4.244,27.187-8.019,40.823-3.059,11.05-10.851,19.84-15.09,30.428-12.358,30.872-11.332,71.941,24.57,83.98,6.426,2.155,13.354,2.056,19.411,3.823,7.933,2.313,15.341,5.98,23.074,8.755l-4.603-31.654,7.345,18.572c1.535,5.795,6.998-3.205,9.702-5.02,9.595-6.444,21.532-9.718,30.043-18.243,21.268-21.304,18.408-70.033-7.074-86.296-8.03-5.125-26.123-2.839-33.847-13.529-1.08,1.195,9.191,15.539,10.59,18.406,6.418,13.154,9.872,27.95,11.12,42.547l-3.202,11.879c4.004-39.341-22.63-67.439-40.123-98.951l-9.245-5.535c10.499,14.23,19.631,34.141,22.843,51.777.559,3.071-.214,1.991-2.778,2.049-4.264-19.575-12.376-39.614-26.219-53.841,11.011,23.588,12.033,47.978,13.929,73.565l-1.59,13.518ZM884.695,695.134c-11.845-5.125-24.247-7.845-36.995-9.506l15.38,7.146c5.567.705,11.144,2.747,16.652,3.501,1.671.229,5.315,1.752,4.963-1.141ZM889.333,710.933c-9.455-1.507-17.145-7.742-23.912-14.228l3.863,9.477-7.696-3.15c6.827,22.847,24.072,13.852,41.378,12.403l3.283-12.346-21.54-3.218,4.624,11.062ZM872.357,718.886l-19.275-11.096.765,6.324-10.767-4.748,4.611,7.901-13.879-3.136c6.384,7.386,20.825,8.376,29.886,7.696,1.598-.12,8.533-.743,8.659-2.941ZM798.323,777.454c-9.269-4.066-24.048-1.182-32.774-3.546-5.812-1.574-33.491-28.062-35.071-26.523,17.302,23.134,41.492,39.55,64.031,56.971l2.28-.765c-6.931-6.653-15.67-13.078-22.394-19.761-1.802-1.791-4.289-3.416-3.809-6.365,19.428-.589,35.58,11.744,50.873,22.16,1.58-2.211-3.721-20.794-6.196-22.917-.627-.537-12.862-6.654-14.514-7.267-4.428-1.642-10.048-2.296-14.747-3.053-.164,3.305,15.626,7.712,12.323,11.067ZM813.746,771.12c1.823-2.284-7.622-16.708-10.851-18.2l-35.395-3.952,18.008,6.031,28.238,16.121ZM736.67,798.034l-6.208-22.155c-2.245.944-2.806,9.433-2.675,11.454,1.584,24.44,14.1,34.09,36.62,37.61-10.397-12.015-19.627-25.704-24.693-41.146-2.613-.31-1.726,5.541-1.618,7.205.174,2.676.455,4.623,1.634,7.021l-3.06.01ZM303.259,777.469c-14.672,3.366-20.763,16.786-29.035,27.971l-20.307,54.349,43.155-5.556,15.428-23.747-53.966,26.127,32.375-34.05c.498-3.265-.412-1.921-2.187-2.558-5.458-1.957-10.083,1.349-14.763,2.594-1.567.417-4.875,2.295-4.618-.787,7.183-1.89,12.895-6.947,20.266-8.496,3.562-.748,21.208-3.469,19.813,2.907l-7.695,7.952c-.244,1.18,1.572,1.062,2.28.766,6.468-2.704,18.636-15.559,25.466-19.783-6.533-1.305-11.516,7.078-17.497,7.062-1.372-.004-12.864-2.61-13.336-3.117-2.956-3.179,5.365-2.622,3.071-6.304l-7.696-.017,6.154-9.484-18.499,4.726c4.793-7.771,14.458-12.542,23.125-14.253l-2.982-1.697,1.448-4.605ZM728.919,810.707l-15.392-30.085-.023,11.076c-5.475.966-4.179-6.741-7.688-7.901.939,14.245,13.06,19.902,23.104,26.91ZM769.019,807.54l-13.886-18.989c-2.434-.445-1.67,2.188-1.41,3.807,1.332,8.325,10.277,30.802,18.311,33.479,15.532,5.176,40.45,1.108,57.141,7.024l-43.954-28.479c-1.175,7.342,5.05,15.01,10.025,19.793-5.414.452-13.882-8.633-17.595-13.604-4.487-6.008-8.971-14.571-10.176-22.022-2.661-.338-1.721,5.556-1.526,7.112.574,4.561,2.505,7.597,3.07,11.88ZM639.466,843.961c-4.925-5.671-16.078-5.342-20.729-9.579-8.212-7.479-14.644-34.682-25.509-42.675l38.558,87.877-.779,2.373-11.56-14.243,1.543,22.943c-.159,1.919-1.703.024-2.304-.8-7.595-10.417-7.086-28.721-6.982-41.137l-6.136,18.984-2.323-22.151c-4.484,7.011-8.267,37.508-3.5,42.376l44.348,16.204c.999-1.09-9.313-17.261-10.363-20.222-.962-2.711-.332-6.338-1.494-9.55-1.744-4.819-12.832-33.469-11.253-35.143,4.432-.179,9.076,2.461,12.332,5.532,3.605,3.399,15.056,20.751,16.946,25.364.293.716.401,2.593-.747,2.342l-13.109-11.069,2.673,13.865,9.641,25.706c4.876-37.999,18.693-77.611-10.766-109.252l12.315,25.327c-.832.855-18.421-9.474-21.04-10.843-1.387-.725-4.074-3.301-5.164-1.032,4.103,3.956,10.222,6.765,13.908,11.056,1.794,2.088,16.267,23.709,16.914,25.397.733,1.912-.428,3.15-2.275,2.336-2.642-1.164-16.673-19.359-20.841-15.806,3.727,4.736,8.196,9.007,7.695,15.819ZM822.662,801.566c-7.682-1.505-14.079-7.877-22.001-8.315-1.933-.107-3.2.012-2.306,2.387.76,2.017,11.543,15.046,13.819,17.49,6.054,6.5,13.932,11.685,20.079,18.164l-9.591-29.726ZM331.023,851.863c17.079-2.887,29.922-10.073,33.915-28.487l-13.102,17.41-1.527-12.652-19.286,23.729ZM324.861,839.202l.771-14.235-23.913,30.063c19.524,3.33,29.294-6.985,35.424-24.608.609-5.657-6.137,5.23-7.659,6.418-1.543,1.204-1.936,3.088-4.623,2.363ZM582.436,856.617c-3.947-10.13.481-19.796-.035-30.074-2.466-3.491-8.792,23.691-9.039,26.333-1.999,21.353,1.244,26.414,21.384,32.248-3.996-16.108-4.106-32.598-3.091-49.073l-9.218,20.565ZM570.077,869.281c-3.292-11.292-3.31-23.134-3.099-34.821-4.161,1.469-3.345,9.305-6.946,11.07-3.903,1.913-1.815-8.268-5.361-7.896.362,12.901,3.164,20.576,11.88,29.635.853.886-.084,3.136,3.526,2.012Z"/>
  </g>
  <g>
    <path class="cls-1" d="M457.505,718.865c4.813-12.706,2.215-23.068,1.466-35.578-.103-1.718-.987-6.007,1.585-5.579,3.986,12.153,6.348,31.325-3.051,41.158Z"/>
    <path class="cls-1" d="M497.801,414.622c-2.422-1.57-2.325-10.515,2.773-11.822,12.506-3.204,6.823,18.043-2.773,11.822Z"/>
    <path class="cls-1" d="M386.544,783.804c-13.954,16.204-33.318,4.833-50.888,4.719.427-2.799,8.064-1.778,10.074-1.624,7.223.553,14.155,3.819,21.502,3.278,6.741-.496,12.865-4.956,19.311-6.374Z"/>
    <path class="cls-1" d="M332.564,707.797l-10.016,14.244-3.844,15.815c-3.484-10.776,3.254-26.097,13.86-30.059Z"/>
    <path class="cls-1" d="M318.672,449.695c.331,2.982-3.11,1.212-4.687.857-5.227-1.179-12.18-2.894-17.219-4.518-1.613-.52-4.66-.41-4.294-2.676,9.302-1.087,17.392,4.42,26.2,6.337Z"/>
  </g>
  <g>
    <path class="cls-1" d="M554.655,150.397h57.065l-44.457,35.825,15.909,54.448-46.256-32.805-47.023,32.789,16.623-54.457c-.511-2.657-37.004-27.823-42.451-32.174-1.279-1.021-2.805.053-1.948-3.627h54.752l20.05-57.021,17.736,57.021Z"/>
    <path class="cls-1" d="M381.147,210.569l13.896-38.014c3.387-.697,1.95,1.501,2.693,3.49,4.274,11.433,7.181,23.623,12.714,34.524h37.786l-29.076,24.9,9.783,38.455-33.665-21.919-33.395,21.903,12.405-38.654-32.47-24.684h39.329Z"/>
    <path class="cls-1" d="M691.919,210.569h40.1l-30.587,24.901,9.751,38.454-33.665-21.92-33.394,21.903,12.405-38.654-32.47-24.684h39.329c6.934-10.364,8.124-24.659,13.051-35.688.702-1.571.938-3.715,3.126-3.898l12.355,39.585Z"/>
  </g>
</svg>