<?xml version="1.0" encoding="UTF-8"?>
<svg id="Nationalist_Party" data-name="Nationalist Party" xmlns="http://www.w3.org/2000/svg" viewBox="0 0 1080 1080">
  <defs>
    <style>
      .cls-1 {
        fill: #616d7d;
      }
    </style>
  </defs>
  <g>
    <path id="path2421" class="cls-1" d="M415.689,369.205l-42.598-30.473-42.647,30.446,16.287-49.284-42.603-30.505,52.664.014,16.317-49.299,16.261,49.293,52.687.037-42.614,30.451,16.246,49.322Z"/>
    <path id="path2421-2" data-name="path2421" class="cls-1" d="M324.996,488.455l-42.598-30.473-42.647,30.446,16.287-49.284-42.603-30.505,52.664.014,16.317-49.299,16.261,49.293,52.687.037-42.614,30.451,16.246,49.322Z"/>
    <path id="path2421-3" data-name="path2421" class="cls-1" d="M582.442,324.768l-47.056-33.662-47.11,33.631,17.991-54.441-47.061-33.697,58.175.015,18.024-54.458,17.962,54.451,58.201.041-47.073,33.637,17.946,54.483Z"/>
  </g>
  <g>
    <path class="cls-1" d="M814.966,584.358l-76.522,128.335,25.458-125.491c.527-.937,4.976-2.844,5.619-2.844h45.444Z"/>
    <polygon class="cls-1" points="712.898 711.017 709.661 693.596 709.986 642.13 747.98 602.692 712.898 711.017"/>
    <polygon class="cls-1" points="612.186 697.935 637.972 741.011 590.149 707.661 591.181 704.368 612.186 697.935"/>
    <path class="cls-1" d="M688.991,659.37c-3.054,11.609-.998,23.868-1.605,35.807l-3.153,19.172-14.441-44.042,19.198-10.936Z"/>
    <path class="cls-1" d="M660.281,726.018l-22.946-30.158-4.147-8.153c5.168.35,8.991-3.707,13.303-5.316,1.632-.609,1.611-2.4,3.456.282l10.334,43.345Z"/>
  </g>
  <g>
    <path class="cls-1" d="M870.774,349.337c-20.443,2.122-45.161,3.656-64.192,12.087-16.382,7.258-30.746,39.204-31.353,57.375-.299,8.962,2.663,20.72,3.046,29.74,4.925,116.053-79.808,205.254-182.353,232.702l-53.621,34.013c-.502,2.132,11.985,14.314,14.328,16.631,7.807,7.721,38.236,37.182,45.708,40.558,18.196,8.222,42.661,3.032,53.474,29.108,2.511,6.056,2.183,21.44,5.506,22.579,30.363-1.032,60.386,1.672,90.597,3.636,2.131.138,9.954,1.236,10.425-1.719l-90.76-13.48c-2.245-20.43-14.97-35.261-32.538-43.488-6.687-3.132-13.376-3.985-19.391-6.399-2.479-.995-4.614-1.403-3.985-4.984,7.679,4.282,15.91,4.725,24.473,8.57,7.156,3.214,17.416,13.501,21.293,14.411,5.031,1.181,10.516-.224,15.595.367,42.333,4.927,84.609,10.416,126.242,19.895,9.021.577,21.257-19.287,27.637-25.751-4.695-2.605-10.415.407-15.169.825-1.738.153-5.95,1.216-5.54-1.63,8.927-5.09,27.871-11.189,34.958-17.636,5.038-4.583,9.539-16.77,14.46-22.37l-59.804,23.307-.779-2.473,83.774-72.446,8.685-18.405-108.404,72.51,106.81-145.844-125.163,129.994-.766-2.459,60.829-133.924,87.37-3.69c8.309-73.562-6.376-147.553-39.84-212.363l20.531-3.958c19.013,39.481,32.783,81.675,38.285,125.803,50.055,401.433-446.87,597.904-695.808,305.625-5.91-6.939-40.659-53.979-40.698-59.241-.015-2.013,1.034-3.108,2.654-3.914l95.228-49.732,91.91,18.714c4.405,14.761,13.511,26.045,23.904,36.649l-54.175,17.483,61.312-6.651,18.403,19.981c-52.56,7.573-104.605,19.185-154.678,37.511-3.618,2.529,3.366,7.719,8.311,7.194,11.619-1.234,31.426-9.22,44.298-12.207,44.609-10.353,89.912-17.676,135.556-20.828l-62.815-75.159c-4.517-7.157-1.496-13.876-.961-21.486l-90.892-15.024,30.295-26.634c-37.636,13.639-74.168,30.552-109.499,49.698-41.626,22.557-112.579,75.092-157.59,75.433-5.468.042-26.46-3.679-29.606-7.547-1.214-1.492-2.185-2.361-.762-4.256l23.19-18.326c-22.934,4.542-45.546,8.069-68.558,1.634-1.049-3.888,3.371-4.621,6.055-6.121,73.156-40.86,152.176-73.602,225.691-114.136,99.688-80.444,208.912-147.819,310.224-225.747,36.442-28.031,52.485-46.634,82.268-80.678,36.975-42.265,91.657-64.858,142.603-32.34,12.555,8.014,21.997,24.662,30.544,29.741,6.611,3.929,21.134,6.135,29.406,9.263,16.53,6.251,32.949,15.21,43.824,30.01ZM779.873,316.052c-18.496-13.374-33.25-25.705-56.787-28.164-37.913-3.961-63.155,16.857-88.302,43.116,19.999-9.596,41.154-18.005,63.11-21.536,5.75-.925-3.39,5.521-2.518,6.535,19.444,1.098,28.492-15.043,48.929-6.957,14.732,5.829,14.671,12.861,34.778,10.315l.79-3.309ZM739.692,326.013c0-3.487-2.704-6.314-6.04-6.314s-6.04,2.827-6.04,6.314,2.704,6.314,6.04,6.314,6.04-2.827,6.04-6.314ZM835.683,337.707l-39.038-15.038-.978,9.852-22.175,5.999c4.627,4.589,9.983.819,15.102.754,13.816-.176,27.737.619,41.536.079,1.926-.075,5.934,1.252,5.553-1.646ZM740.003,524.344c11.529-28.359,13.766-56.882,12.756-87.468-.428-12.96-4.272-17.844-.828-32.575,4.835-20.682,18.917-32.18,29.49-49.132-.195-2.727-17.004-8.571-20.15-8.63-7.427-.137-17.261,8.095-26.758,7.862-12.066-.296-22.414-11.593-33.694-13.236-13.003-1.894-30.8,1.584-40.521,11.504l17.532-.824-20.714,13.349c6.598,3.118,13.449,6.257,15.936,14.144-3.032-.286-5.474-1.51-8.67-1.756-1.776-.136-8.883-1.118-8.856,1.749,8.406,3.72,15.204,10.963,20.716,18.339-62.848-21.719-130.515,7.114-180.174,47.525,1.245,2.484,3.838-.371,5.242-1.188,39.392-22.934,81.495-38.448,127.723-32.806,72.106,8.8,40.616,85.73,9.758,123.175-54.693,66.368-127.615,80.105-205.268,93.789-1.682.296-6.335.429-6.018,2.843,54.273,13.781,116.314,6.216,165.858-20.78,6.963-3.794,13.338-9.71,20.694-12.52-22.878,30.65-58.701,45.789-94.094,54.134-3.424,4.045-.715,2.125,1.77,1.86,58.591-6.262,116.131-33.202,156.911-77.669,2.383,1.311-.365,4.007-1.141,5.475-8.361,15.822-18.911,28.171-31.547,40.359-.253,1.235,1.672,1.14,2.363.812,2.533-1.203,18.35-14.555,21.566-17.468,34.648-31.388,61.011-79.369,65.373-127.514,2.183-.408,2.413,2.974,2.748,4.588,2.86,13.787,1.505,22.824.441,36.269-.144,1.82-1.164,6.219,1.559,5.791ZM590.129,474.364c-2.998-.72-3.78,1.767-5.576,3.322-10.637,9.216-25.695,29.403-40.292,31.384-4.613.626-8.853-1.363-8.106-6.806.819-5.966,21.317-30.209,18.887-32.908-17.892,10.133-30.145,35.725-52.604,34.992-1.01-8.582,5.769-14.165,10.373-19.983,1.044-1.32,4.2-3.313,1.596-4.999-16.419,11.188-28.936,29.065-50.23,29.148,7.517,9.688,17.689,2.301,24.751,3.287,2.841.397,6.605,5.29,12.693,5.942,7.612.815,18.063-4.374,22.032-3.488.894.199,6.719,8.789,15.083,9.797,7.847.945,18.706-6.174,21.941-5.799,1.142.132,9.464,9.811,17.927,10.794,25.513,2.962,58.914-29.461,62.57-55.511l-19.978,19.118c-8.655,6.652-34.738,24.71-44.753,16.844-8.465-6.649,16.005-32.704,13.686-35.132ZM449.817,494.372c-32.764,15.441-61.569,38.643-90.888,59.968,34.722-10.787,69.691-28.1,90.888-59.968ZM465.763,534.374l-149.877,54.968c30.081-3.18,59.954-9.648,88.514-19.957,20.901-7.544,46.39-17.969,61.363-35.012ZM500.843,547.707c-17.601,1.067-33.959,12.897-50.63,19.563-53.396,21.35-110.921,32.685-167.813,37.913,6.077,2.934,17.577,3.887,24.642,4.244,61.738,3.114,175.981-8.515,227.788-45.379,2.832-2.015,11.84-7.344,9.844-11.378-15.939,3.131-29.952,12.363-45.001,17.964-27.225,10.133-60.669,19.893-89.386,23.251-1.753.205-5.444,1.928-5.105-1.175,23.261-6.556,48.885-16.039,70.487-27.166,8.569-4.414,19.455-9.837,25.175-17.837ZM261.655,632.709c-15.997-1.431-31.38,6.611-45.718,13.022-40.568,18.143-100.865,45.894-137.696,69.41-2.367,1.511-5.424,2.787-6.327,5.87l189.741-88.302ZM493.667,697.693c-8.978.383-18.111,0-27.107,0-1.006,0-11.142,3.243-12.005,4.117l-.838,7.585c8.45,10.661,39.387,64.534,48.305,67.9,7.131,2.691,20.301,2.304,29.131,4.551,19.766,5.031,33.564,13.357,37.839,35.446.789,4.078-1.415,12.391,2.801,12.096,10.786-.755,22.013-2.452,32.686-4.184-5.655-8.337-19.278-7.128-25.633-13.208-3.631-3.473-6.439-14.275-11.075-20.091-4.306-5.402-9.818-8.307-14.277-13.378l11.122-3.325-71.829-58.248c-4.913-6.72,2.276-12.46,3.289-18.419.853-5.014-2.039-.858-2.409-.842ZM637.966,824.371c2.385-17.6-8.162-25.902-23.91-26.66,3.698,5.387,9.668,7.932,13.449,13.427,3.512,5.104,3.894,14.805,10.461,13.233ZM547.076,831.021c3.031-17.326-7.304-28.926-23.902-28.308l14.336,12.491c3.148,3.517,3.772,8.397,5.671,12.483,1.118,2.407-.337,4.171,3.896,3.334ZM516.782,836.021c-1.072-17.97-17.534-12.977-29.229-11.383-23.056,3.143-45.362,10.628-68.048,15.541l-70.132,24.163,16.538,6.638c49.079-16.059,99.551-30.105,150.87-34.959Z"/>
    <path class="cls-1" d="M862.801,316.003l-38.21-17.545c-120.541-147.793-338.114-176.721-494.229-73.133-113.761,75.485-182.873,213.475-165.906,355.636l89.222,5.042-98.832,53.353c-4.377-21.062-9.288-42.657-11.158-64.188-11.568-133.177,42.779-259.319,142.058-341.478,176.457-146.03,446.837-110.127,577.055,82.312Z"/>
    <path class="cls-1" d="M614.054,756.012c-13.968-4.698-26.214-20.709-36.673-31.635,6.476,2.819,12.865,8.696,18.293,13.363,6.089,5.233,13.082,12.134,18.38,18.272Z"/>
  </g>
</svg>